<?xml version="1.0" standalone="no"?>
<!DOCTYPE svg PUBLIC "-//W3C//DTD SVG 20010904//EN"
 "http://www.w3.org/TR/2001/REC-SVG-20010904/DTD/svg10.dtd">
<svg version="1.0" xmlns="http://www.w3.org/2000/svg"
 width="1280.000000pt" height="1220.000000pt" viewBox="0 0 1280.000000 1220.000000"
 preserveAspectRatio="xMidYMid meet">
<g transform="translate(0.000000,1220.000000) scale(0.100000,-0.100000)"
fill="#000000" stroke="none">
<path d="M7725 12171 c-117 -34 -204 -77 -400 -195 -183 -111 -327 -183 -437
-220 -448 -150 -950 -60 -1638 295 -106 55 -182 89 -195 86 -46 -9 -2381 -911
-2398 -925 -48 -42 -2632 -3014 -2632 -3027 0 -8 420 -485 934 -1060 l933
-1045 132 0 131 0 233 246 c129 135 239 243 245 241 9 -3 13 -792 17 -3188 l5
-3184 35 -98 35 -99 535 5 c294 2 1935 10 3645 16 l3110 12 108 72 109 72 -6
820 c-6 768 -11 1332 -36 3815 -12 1217 -14 1690 -6 1697 6 6 102 -85 392
-370 l151 -149 111 23 110 24 926 1038 927 1037 -3 144 -3 144 -1217 1323
-1218 1324 -1192 540 c-656 296 -1227 555 -1268 574 -41 20 -77 37 -80 37 -3
1 -46 -10 -95 -25z"/>
</g>
</svg>
